<svg width="53" height="44" viewBox="0 0 53 44" fill="none" xmlns="http://www.w3.org/2000/svg">
<path d="M52.7077 13.9099C52.4158 13.506 51.9468 13.2665 51.4473 13.2665H41.5865V32.0464C41.5865 32.6 41.5413 33.1481 41.4549 33.6868H42.2711C44.942 33.6868 47.2978 32.0181 48.1333 29.5344L52.9196 15.305C53.0782 14.8331 52.9994 14.3139 52.7077 13.9099Z" fill="#FBD319"/>
<path d="M11.4135 13.2665H1.55275C1.05318 13.2665 0.584154 13.506 0.292343 13.9099C0.00063635 14.3139 -0.0782425 14.8331 0.0804469 15.305L4.8667 29.5344C5.70217 32.018 8.05798 33.6868 10.7289 33.6868H11.5451C11.4587 33.1481 11.4135 32.6 11.4135 32.0464V13.2665Z" fill="#FBD319"/>
<path d="M26.5 14.4384C27.3576 14.4384 28.0528 13.7458 28.0528 12.8914C28.0528 12.0371 27.3576 11.3445 26.5 11.3445C25.6425 11.3445 24.9473 12.0371 24.9473 12.8914C24.9473 13.7458 25.6425 14.4384 26.5 14.4384Z" fill="#FBD319"/>
<path d="M14.4156 23.7202V32.0463C14.4156 34.4923 15.6334 36.7978 17.6733 38.2132L21.5313 40.8904V23.7202H14.4156Z" fill="#FBD319"/>
<path d="M28.3633 23.7202H24.6367V43.0453L25.6126 43.7224C25.8792 43.9075 26.1896 44 26.5 44C26.8105 44 27.1208 43.9075 27.3875 43.7224L28.3633 43.0453V23.7202Z" fill="#FBD319"/>
<path d="M38.5845 23.7202H31.4688V40.8903L35.3268 38.2132C37.3667 36.7978 38.5845 34.4923 38.5845 32.0463V23.7202Z" fill="#FBD319"/>
<path d="M38.5846 20.6263V7.17873C38.5846 6.60893 38.2701 6.08512 37.7662 5.81564L27.2344 0.18392C26.7758 -0.0613271 26.2243 -0.0613271 25.7658 0.18392L15.234 5.81574C14.73 6.08523 14.4156 6.60893 14.4156 7.17884V20.6263H38.5846ZM26.5001 8.25048C29.0686 8.25048 31.1583 10.3324 31.1583 12.8914C31.1583 15.4504 29.0686 17.5323 26.5001 17.5323C23.9315 17.5323 21.8419 15.4504 21.8419 12.8914C21.8419 10.3324 23.9315 8.25048 26.5001 8.25048Z" fill="#FBD319"/>
</svg>
